<svg width="900" height="220" viewBox="0 0 900 220" xmlns="http://www.w3.org/2000/svg">
<rect width="900" height="220" fill="#0a0002"/>
<text x="10" y="35" font-family="Courier New, monospace" font-size="14" fill="#ff5252">Network Security</text>
<rect x="300" y="20" width="560" height="14" rx="3" fill="#1a0006" stroke="#ff174455" stroke-width="1"/>
<rect x="300" y="20" width="0" height="14" rx="3" fill="#ff1744"><animate attributeName="width" from="0" to="364" dur="1.6s" fill="freeze" begin="0.2s"/></rect>
<text x="872" y="32" font-family="Courier New, monospace" font-size="13" fill="#ffffff">65%</text>
<text x="10" y="75" font-family="Courier New, monospace" font-size="14" fill="#ff5252">Burp Suite</text>
<rect x="300" y="60" width="560" height="14" rx="3" fill="#1a0006" stroke="#ff174455" stroke-width="1"/>
<rect x="300" y="60" width="0" height="14" rx="3" fill="#ff1744"><animate attributeName="width" from="0" to="308" dur="1.6s" fill="freeze" begin="0.2s"/></rect>
<text x="872" y="72" font-family="Courier New, monospace" font-size="13" fill="#ffffff">55%</text>
<text x="10" y="115" font-family="Courier New, monospace" font-size="14" fill="#ff5252">Kali Linux</text>
<rect x="300" y="100" width="560" height="14" rx="3" fill="#1a0006" stroke="#ff174455" stroke-width="1"/>
<rect x="300" y="100" width="0" height="14" rx="3" fill="#ff1744"><animate attributeName="width" from="0" to="336" dur="1.6s" fill="freeze" begin="0.2s"/></rect>
<text x="872" y="112" font-family="Courier New, monospace" font-size="13" fill="#ffffff">60%</text>
<text x="10" y="155" font-family="Courier New, monospace" font-size="14" fill="#ff5252">Python</text>
<rect x="300" y="140" width="560" height="14" rx="3" fill="#1a0006" stroke="#ff174455" stroke-width="1"/>
<rect x="300" y="140" width="0" height="14" rx="3" fill="#ff1744"><animate attributeName="width" from="0" to="224" dur="1.6s" fill="freeze" begin="0.2s"/></rect>
<text x="872" y="152" font-family="Courier New, monospace" font-size="13" fill="#ffffff">40%</text>
<text x="10" y="195" font-family="Courier New, monospace" font-size="14" fill="#ff5252">CTF Challenges</text>
<rect x="300" y="180" width="560" height="14" rx="3" fill="#1a0006" stroke="#ff174455" stroke-width="1"/>
<rect x="300" y="180" width="0" height="14" rx="3" fill="#ff1744"><animate attributeName="width" from="0" to="280" dur="1.6s" fill="freeze" begin="0.2s"/></rect>
<text x="872" y="192" font-family="Courier New, monospace" font-size="13" fill="#ffffff">50%</text>
</svg>